<svg width="66" height="66" viewBox="0 0 66 66" xmlns="http://www.w3.org/2000/svg"><g id="Page-1" stroke="#000000" stroke-width="2" fill="none" fill-rule="evenodd"><g  transform="translate(-59 -1259)"><g id="Group-77" transform="translate(60 1260)"><g transform="translate(18 18)" stroke="#000000" stroke-linecap="round" stroke-width="2"><path d="M4 16h22M21.5 8h-13C2 13 2 20.5 2 20.5 2 23.953 4.363 28 7.91 28h14.18c3.547 0 5.91-4.047 5.91-7.5 0 0 0-7.5-6.5-12.5zM0 8V5.333C0 2.388 2.217 0 4.952 0H26l-4.952 8M6 0l2 8" id="Stroke"/></g><path d="M31.757 0c17.539 0 31.757 14.218 31.757 31.757S49.296 63.514 31.757 63.514 0 49.296 0 31.757 14.218 0 31.757 0z" id="Rectangle" stroke="#000000" stroke-width="2" opacity="1"/></g></g></g></svg>