<svg width="66" height="66" viewBox="0 0 66 66" xmlns="http://www.w3.org/2000/svg"><g id="Page-1" stroke="none" stroke-width="1" fill="none" fill-rule="evenodd"><g transform="translate(-306 -1339)"><g id="Group-74" transform="translate(307 1340)"><g id="Gas-Hob" transform="translate(18 18)" stroke="#000000" stroke-linecap="round" stroke-width="2"><path d="M3 22h22M14 16v.02M8 16v.02M20 16v.02M24 2h2v10M2 12V2h2M10 2V1c0-.553.597-1 1.333-1h5.334C17.403 0 18 .447 18 1v1" id="Stroke"/><path id="Stroke" d="M2.545 28V16.923L0 15.693V12h28v3.692l-2.545 1.231V28"/></g><path d="M31.757 0c17.539 0 31.757 14.218 31.757 31.757S49.296 63.514 31.757 63.514 0 49.296 0 31.757 14.218 0 31.757 0z" id="Rectangle" stroke="#000000" stroke-width="2" opacity="1"/></g></g></g></svg>