<svg width="66" height="66" viewBox="0 0 66 66" xmlns="http://www.w3.org/2000/svg"><g id="Page-1" stroke="none" stroke-width="1" fill="none" fill-rule="evenodd"><g  transform="translate(-228 -1280)"><g id="Group-75" transform="translate(229 1281)"><g id="Oven" transform="translate(18 18)" stroke="#000000" stroke-linecap="round" stroke-width="2"><path d="M8 16h12M0 10h28M6 4h.02M10 4h.02M18 4h.02M24 4h.02M28 2.545V28H0V2.545A2.546 2.546 0 0 1 2.545 0h22.91A2.546 2.546 0 0 1 28 2.545z" id="Stroke"/></g><path d="M31.757 0c17.539 0 31.757 14.218 31.757 31.757S49.296 63.514 31.757 63.514 0 49.296 0 31.757 14.218 0 31.757 0z" id="Rectangle" stroke="#000000" stroke-width="2" opacity="1"/></g></g></g></svg>