<svg width="66" height="66" viewBox="0 0 66 66" xmlns="http://www.w3.org/2000/svg"><g stroke="none" stroke-width="1" fill="none" fill-rule="evenodd"><g transform="translate(-1226 -1099)"><g transform="translate(1193 1100)"><g transform="translate(34)"><g transform="translate(18.147 23.332)" stroke="#000000" stroke-linecap="round" stroke-linejoin="round" stroke-width="2"><path d="M11.018 7.13a3.24 3.24 0 1 1-6.48 0 3.24 3.24 0 0 1 6.48 0zM0 0v18.147M28.516 18.147V7.777a3.888 3.888 0 0 0-3.888-3.888h-9.074v10.37M0 14.258h28.516" id="Stroke"/></g><path d="M31.757 0c17.539 0 31.757 14.218 31.757 31.757S49.296 63.514 31.757 63.514 0 49.296 0 31.757 14.218 0 31.757 0z" id="Rectangle" stroke="#000000" opacity="1" stroke-width="2"/></g></g></g></g></svg>