
<svg xmlns="http://www.w3.org/2000/svg" width="66" height="66" viewBox="0 0 66 66"><g fill="none" fill-rule="evenodd"><path stroke="#000000" stroke-linecap="round" stroke-linejoin="round" stroke-width="2" d="M29.516 34.701v7.777m7.778-7.777v7.777m-3.889-7.777v7.777m11.665-7.777v7.777m-3.888-7.777v7.777m-22.035 5.185H45.07a2.593 2.593 0 0 0 0-5.185H19.147m11.666-12.962h12.962a3.888 3.888 0 0 0 3.888-3.888 3.888 3.888 0 0 0-3.884-3.89c-2.414 0-6.522-.012-7.782-.005-1.234.006-2.592-1.29-2.592-2.586-3.848 0-6.532 2.635-6.48 6.48.025 1.873 1.295 3.89 3.888 3.89z"/><path stroke="#000000" stroke-width="2" d="M32.757 1c17.539 0 31.757 14.218 31.757 31.757S50.296 64.514 32.757 64.514 1 50.296 1 32.757 15.218 1 32.757 1z" opacity="1"/></g></svg>